Coordinates
version=1
nRows=16
nColumns=63
inDegrees=yes

Units are S.I. units (second, meters, Newtons, ...)
If the header above contains a line with 'inDegrees', this indicates whether rotational values are in degrees (yes) or radians (no).

endheader
time	pelvis_tilt	pelvis_list	pelvis_rotation	pelvis_tx	pelvis_ty	pelvis_tz	hip_flexion_r	hip_adduction_r	hip_rotation_r	knee_angle_r	knee_angle_r_beta	ankle_angle_r	subtalar_angle_r	mtp_angle_r	hip_flexion_l	hip_adduction_l	hip_rotation_l	knee_angle_l	knee_angle_l_beta	ankle_angle_l	subtalar_angle_l	mtp_angle_l	L5_S1_Flex_Ext	L5_S1_Lat_Bending	L5_S1_axial_rotation	L4_L5_Flex_Ext	L4_L5_Lat_Bending	L4_L5_axial_rotation	L3_L4_Flex_Ext	L3_L4_Lat_Bending	L3_L4_axial_rotation	L2_L3_Flex_Ext	L2_L3_Lat_Bending	L2_L3_axial_rotation	L1_L2_Flex_Ext	L1_L2_Lat_Bending	L1_L2_axial_rotation	L1_T12_Flex_Ext	L1_T12_Lat_Bending	L1_T12_axial_rotation	Abs_r3	Abs_r2	Abs_r1	Abs_t1	Abs_t2	neck_flexion	neck_bending	neck_rotation	arm_flex_r	arm_add_r	arm_rot_r	elbow_flex_r	pro_sup_r	wrist_flex_r	wrist_dev_r	arm_flex_l	arm_add_l	arm_rot_l	elbow_flex_l	pro_sup_l	wrist_flex_l	wrist_dev_l
0.000000	4.351339	-5.260670	88.035136	0.217584	0.801003	0.764417	6.368201	2.044741	22.429555	2.892741	0.050488	26.641129	-14.719377	0.000000	8.004183	-4.943741	-14.214315	11.025553	0.192432	39.412984	13.611635	0.000000	0.161609	0.265099	0.984781	0.300124	0.352581	1.046330	0.265508	0.644561	1.046330	0.184703	0.644561	0.861684	0.150070	0.540589	0.800135	0.092343	0.410638	0.738586	1.154358	2.998850	5.477059	0.000000	0.000000	28.082721	1.671438	8.112720	13.219274	-1.705140	56.288845	27.040470	88.105108	-0.411222	-2.540979	19.496651	2.019769	100.578110	22.618462	11.270373	-1.639879	-7.291422
0.020408	4.481351	-5.202022	89.408665	0.215187	0.800309	0.764193	5.970519	1.890462	21.647946	2.460661	0.042947	26.483813	-14.744878	0.000000	8.100923	-4.670723	-11.770506	10.730340	0.187280	39.237642	12.637753	0.000000	0.148682	0.283090	0.682977	0.276117	0.376510	0.725663	0.244270	0.688306	0.725663	0.169929	0.688306	0.597605	0.138066	0.577278	0.554919	0.084957	0.438507	0.512233	1.062020	3.202374	3.798514	0.000000	0.000000	27.956289	1.798324	8.175698	13.386619	-2.030323	58.403415	27.217859	79.504484	0.203260	-2.933443	19.314963	1.768761	99.429590	23.203508	11.826170	-2.178461	-8.221654
0.040816	4.586861	-5.139447	90.587203	0.213253	0.799822	0.763945	5.626137	1.765225	20.982902	2.105454	0.036747	26.345292	-14.812109	0.000000	8.175300	-4.458530	-9.772913	10.529215	0.183769	39.094805	11.920108	0.000000	0.138715	0.296076	0.440797	0.257607	0.393781	0.468346	0.227894	0.719879	0.468346	0.158537	0.719879	0.385697	0.128810	0.603758	0.358147	0.079262	0.458622	0.330597	0.990825	3.349272	2.451579	0.000000	0.000000	27.863074	1.890291	8.137709	13.567570	-2.328750	60.295893	27.369975	72.943348	0.677544	-3.320028	19.151632	1.586201	98.574033	23.663740	12.377279	-2.600573	-8.814527
0.061224	4.670726	-5.071292	91.584757	0.211740	0.799519	0.763669	5.328412	1.667522	20.427707	1.821299	0.031788	26.226287	-14.915539	0.000000	8.225972	-4.302065	-8.185379	10.411079	0.181708	38.983185	11.432537	0.000000	0.131188	0.304769	0.252629	0.243630	0.405343	0.268418	0.215529	0.741017	0.268418	0.149935	0.741017	0.221050	0.121821	0.621486	0.205261	0.074961	0.472088	0.189472	0.937065	3.447613	1.405047	0.000000	0.000000	27.798395	1.949843	8.015304	13.760757	-2.600310	61.983115	27.495591	68.210883	1.023032	-3.697030	19.008093	1.464885	97.976621	24.009676	12.926523	-2.916998	-9.111220
0.081633	4.735803	-4.995907	92.415334	0.210603	0.799379	0.763364	5.070701	1.595843	19.975645	1.602379	0.027967	26.127517	-15.049641	0.000000	8.251595	-4.196228	-6.971743	10.364837	0.180901	38.901496	11.148873	0.000000	0.125584	0.309884	0.112863	0.233222	0.412145	0.119917	0.206322	0.753451	0.119917	0.143530	0.753451	0.098755	0.116617	0.631915	0.091702	0.071759	0.480010	0.084648	0.897033	3.505466	0.627713	0.000000	0.000000	27.757573	1.979483	7.825033	13.964808	-2.844895	63.481917	27.593478	65.096268	1.251128	-4.060745	18.885777	1.397609	97.602536	24.251832	13.476727	-3.138515	-9.152913
0.102041	4.784950	-4.911640	93.092942	0.209798	0.799381	0.763025	4.846359	1.548681	19.620001	1.442874	0.025183	26.049702	-15.208884	0.000000	8.250828	-4.135923	-6.095846	10.379392	0.181155	38.848450	11.042954	0.000000	0.121382	0.312132	0.015889	0.225419	0.415136	0.016882	0.199419	0.758918	0.016882	0.138728	0.758918	0.013903	0.112715	0.636500	0.012910	0.069358	0.483492	0.011917	0.867020	3.530900	0.088371	0.000000	0.000000	27.735929	1.981715	7.583446	14.178352	-3.062394	64.809136	27.662408	63.388686	1.373235	-4.407469	18.786120	1.377169	97.416959	24.400726	14.030716	-3.275905	-8.980784
0.122449	4.821024	-4.816841	93.631587	0.209282	0.799502	0.762650	4.648744	1.524527	19.354059	1.336966	0.023334	25.993562	-15.387739	0.000000	8.222328	-4.116051	-5.521530	10.443647	0.182276	38.822761	11.088614	0.000000	0.118064	0.312228	-0.043904	0.219257	0.415263	-0.046649	0.193967	0.759150	-0.046649	0.134935	0.759150	-0.038416	0.109634	0.636695	-0.035672	0.067462	0.483641	-0.032928	0.843320	3.531981	-0.244184	0.000000	0.000000	27.728782	1.959042	7.307094	14.400015	-3.252697	65.981606	27.701154	62.877317	1.400754	-4.733499	18.710554	1.396361	97.385073	24.466875	14.591313	-3.339950	-8.636012
0.142857	4.846882	-4.709858	94.045277	0.209012	0.799722	0.762236	4.471210	1.521872	19.171103	1.278836	0.022320	25.959818	-15.580676	0.000000	8.164752	-4.131514	-5.212634	10.546506	0.184071	38.823142	11.259689	0.000000	0.115111	0.310884	-0.072128	0.213772	0.413476	-0.076636	0.189115	0.755883	-0.076636	0.131560	0.755883	-0.063112	0.106892	0.633954	-0.058604	0.065774	0.481559	-0.054096	0.822225	3.516780	-0.401157	0.000000	0.000000	27.731453	1.913968	7.012526	14.628428	-3.415695	67.016165	27.708487	63.351343	1.345090	-5.035131	18.660513	1.447981	97.472060	24.460795	15.161342	-3.341430	-8.159777
0.163265	4.865382	-4.589039	94.348019	0.208942	0.800017	0.761781	4.307115	1.539208	19.064417	1.262664	0.022038	25.949188	-15.782166	0.000000	8.076758	-4.177214	-5.133001	10.676872	0.186347	38.848306	11.530014	0.000000	0.112003	0.308814	-0.074393	0.208001	0.410723	-0.079043	0.184010	0.750850	-0.079043	0.128008	0.750850	-0.065094	0.104006	0.629733	-0.060445	0.063999	0.478353	-0.055795	0.800027	3.493365	-0.413754	0.000000	0.000000	27.739262	1.848997	6.716294	14.862219	-3.551277	67.929649	27.683181	64.599946	1.217644	-5.308660	18.637430	1.524825	97.643101	24.393005	15.743628	-3.291127	-7.593257
0.183673	4.879380	-4.452735	94.553819	0.209031	0.800368	0.761282	4.149814	1.575027	19.027287	1.282632	0.022386	25.962394	-15.986678	0.000000	7.957002	-4.248053	-5.246470	10.823648	0.188908	38.896966	11.873424	0.000000	0.108222	0.306731	-0.056310	0.200979	0.407952	-0.059830	0.177798	0.745786	-0.059830	0.123687	0.745786	-0.049271	0.100495	0.625486	-0.045752	0.061838	0.475127	-0.042233	0.773019	3.469804	-0.313180	0.000000	0.000000	27.747531	1.766631	6.434947	15.100015	-3.659333	68.738893	27.624006	66.412306	1.029819	-5.550384	18.642739	1.619688	97.863378	24.274021	16.340995	-3.199821	-6.977631
0.204082	4.891734	-4.299293	94.676686	0.209233	0.800751	0.760736	3.992665	1.627820	19.052996	1.332922	0.023264	26.000155	-16.188685	0.000000	7.804144	-4.338932	-5.516883	10.975738	0.191563	38.967835	12.263756	0.000000	0.103249	0.305349	-0.023489	0.191743	0.406114	-0.024958	0.169627	0.742425	-0.024958	0.118003	0.742425	-0.020553	0.095877	0.622667	-0.019085	0.058996	0.472985	-0.017617	0.737494	3.454166	-0.130641	0.000000	0.000000	27.751578	1.669375	6.185035	15.340446	-3.739754	69.460735	27.529735	68.577605	0.793019	-5.756598	18.677874	1.725367	98.098074	24.114360	16.956268	-3.078293	-6.354078
0.224490	4.854812	-4.135913	94.661062	0.209600	0.801178	0.760028	3.833350	1.645033	19.227073	1.407953	0.024573	26.095529	-16.338804	0.000000	7.574322	-4.377008	-5.888572	11.006849	0.192106	39.021950	12.569413	0.000000	0.098828	0.298333	0.039208	0.183534	0.396783	0.041659	0.162365	0.725366	0.041659	0.112951	0.725366	0.034307	0.091772	0.608360	0.031857	0.056471	0.462117	0.029406	0.705922	3.374799	0.218064	0.000000	0.000000	27.731178	1.551109	5.921234	15.490193	-3.766863	69.864783	27.433576	70.943346	0.588308	-5.867848	18.748329	1.812755	98.621900	23.937910	17.520850	-3.105261	-6.194411
0.244898	4.846401	-3.939669	94.617008	0.209936	0.801556	0.759317	3.636146	1.692321	19.441571	1.488301	0.025976	26.176881	-16.491001	0.000000	7.311492	-4.456136	-6.421127	11.065485	0.193129	39.113067	12.952104	0.000000	0.088818	0.296950	0.085673	0.164945	0.394943	0.091027	0.145920	0.722004	0.091027	0.101511	0.722004	0.074964	0.082477	0.605540	0.069609	0.050751	0.459975	0.064255	0.634421	3.359156	0.476486	0.000000	0.000000	27.695958	1.483133	5.815607	15.670981	-3.726831	70.407239	27.290199	72.830749	0.412349	-5.823189	18.825096	1.893182	98.807729	23.744675	18.219566	-3.088615	-6.015257
0.265306	4.862260	-3.696897	94.556615	0.210189	0.801870	0.758580	3.383758	1.765695	19.722733	1.574033	0.027472	26.252741	-16.686968	0.000000	6.998472	-4.563900	-7.063911	11.132371	0.194297	39.245260	13.385785	0.000000	0.070720	0.301092	0.116486	0.131334	0.400452	0.123766	0.116186	0.732074	0.123766	0.080826	0.732074	0.101925	0.065671	0.613986	0.094645	0.040409	0.466391	0.087364	0.505146	3.406008	0.647858	0.000000	0.000000	27.645072	1.432935	5.841450	15.839109	-3.646343	70.723963	27.114202	74.684534	0.153825	-5.689794	19.058675	2.013641	99.518254	23.405326	18.068879	-2.960597	-5.989491
0.285714	4.890736	-3.432936	94.500871	0.210354	0.802063	0.757808	3.106802	1.854409	20.018567	1.671110	0.029166	26.358627	-16.883641	0.000000	6.660372	-4.659531	-7.527850	11.174688	0.195035	39.372274	13.553716	0.000000	0.048572	0.308918	0.120606	0.090204	0.410861	0.128144	0.079800	0.751103	0.128144	0.055513	0.751103	0.105531	0.045104	0.629945	0.097993	0.027754	0.478514	0.090455	0.346948	3.494541	0.670777	0.000000	0.000000	27.576303	1.420529	6.015240	16.105381	-3.515270	71.424238	26.844757	75.247119	-0.155392	-5.610193	19.341477	2.091912	99.984477	23.016937	17.728576	-2.710722	-5.961057
0.306122	4.953800	-3.154064	94.482206	0.210376	0.802113	0.757003	2.811727	1.977754	20.273888	1.769426	0.030882	26.519731	-17.050540	0.000000	6.327110	-4.777186	-7.943566	11.220471	0.195834	39.562742	13.701069	0.000000	0.023782	0.323644	0.095078	0.044165	0.430447	0.101021	0.039071	0.786908	0.101021	0.027180	0.786908	0.083194	0.022084	0.659975	0.077251	0.013589	0.501325	0.071309	0.169870	3.661127	0.528797	0.000000	0.000000	27.492694	1.401132	6.341967	16.462369	-3.353069	72.343821	26.486323	74.750649	-0.523368	-5.651030	19.644405	2.136226	99.913531	22.595060	17.447770	-2.301975	-5.850172
